<?xml version="1.0" standalone="no"?>
<!DOCTYPE svg PUBLIC "-//W3C//DTD SVG 20010904//EN"
 "http://www.w3.org/TR/2001/REC-SVG-20010904/DTD/svg10.dtd">
<svg version="1.0" xmlns="http://www.w3.org/2000/svg"
 width="854.000000pt" height="480.000000pt" viewBox="0 0 854.000000 480.000000"
 preserveAspectRatio="xMidYMid meet">

<g transform="translate(0.000000,480.000000) scale(0.100000,-0.100000)"
fill="#000000" stroke="none">
<path d="M3100 4495 c19 -19 36 -35 39 -35 3 0 -10 16 -29 35 -19 19 -36 35
-39 35 -3 0 10 -16 29 -35z"/>
<path d="M3286 4183 c8 -55 9 -57 24 -48 18 11 6 89 -14 93 -15 3 -17 -2 -10
-45z"/>
<path d="M6581 4178 c-1 -10 -20 -30 -43 -45 -24 -15 -46 -32 -50 -38 -10 -13
-10 -95 0 -95 4 0 25 14 46 32 30 25 40 28 47 17 7 -11 9 -11 9 3 0 9 8 19 18
21 16 4 16 5 -1 6 -13 1 -16 7 -12 24 2 12 1 38 -4 57 -5 19 -9 27 -10 18z"/>
<path d="M3080 4166 c0 -3 69 -64 153 -137 83 -72 162 -143 175 -156 14 -15
22 -19 22 -10 0 16 -25 39 -207 195 -120 103 -143 120 -143 108z"/>
<path d="M6551 4004 c0 -11 3 -14 6 -6 3 7 2 16 -1 19 -3 4 -6 -2 -5 -13z"/>
<path d="M6480 3980 c0 -5 5 -10 10 -10 6 0 10 5 10 10 0 6 -4 10 -10 10 -5 0
-10 -4 -10 -10z"/>
<path d="M3670 3650 c0 -11 7 -20 15 -20 8 0 15 6 15 14 0 8 -7 16 -15 20 -10
4 -15 -1 -15 -14z"/>
<path d="M6648 3383 c5 -83 9 -90 11 -20 0 37 -2 67 -7 67 -4 0 -6 -21 -4 -47z"/>
<path d="M3060 3391 c0 -5 9 -12 19 -16 25 -8 36 -80 21 -136 -6 -22 -9 -47
-6 -55 3 -8 1 -14 -3 -14 -13 0 -21 -27 -15 -45 5 -13 8 -13 21 0 8 8 16 23
18 32 3 10 16 51 30 92 14 41 23 82 20 92 -3 10 -24 27 -46 38 -43 23 -59 26
-59 12z"/>
<path d="M2995 3380 c-3 -5 -1 -10 4 -10 6 0 11 5 11 10 0 6 -2 10 -4 10 -3 0
-8 -4 -11 -10z"/>
<path d="M1525 3360 c-3 -5 21 -17 55 -26 81 -23 77 -35 -6 -16 -36 8 -67 12
-70 9 -3 -2 1 -16 7 -31 10 -20 9 -34 -1 -66 -10 -31 -11 -48 -1 -77 13 -43
60 -114 78 -120 7 -3 21 15 32 39 11 24 38 76 60 117 62 112 55 132 -58 165
-63 18 -87 20 -96 6z"/>
<path d="M1253 3350 c-33 -13 -54 -74 -55 -159 l-2 -74 -90 6 c-94 6 -658 72
-921 107 -199 26 -185 28 -185 -19 0 -38 1 -39 48 -50 26 -5 83 -13 127 -16
149 -11 190 -15 310 -30 134 -17 610 -73 725 -85 173 -19 179 -20 168 -45 -10
-23 -55 -41 -188 -76 -87 -23 -98 -32 -110 -84 -8 -35 -6 -41 25 -72 18 -18
40 -33 48 -33 8 0 17 -9 20 -20 3 -12 14 -20 26 -20 12 0 21 -4 21 -9 0 -5 11
-12 25 -15 14 -4 25 -11 25 -16 0 -6 5 -10 11 -10 5 0 8 4 5 8 -3 5 18 5 47 1
29 -4 78 -6 109 -5 63 3 71 -4 66 -62 -3 -37 -11 -40 -135 -49 -61 -4 -93 -2
-93 4 0 15 -60 25 -75 13 -7 -6 -20 -8 -29 -4 -9 3 -22 2 -29 -4 -6 -5 -25
-12 -42 -16 -16 -4 -38 -15 -47 -23 -10 -9 -18 -13 -18 -10 0 3 -25 -3 -55
-14 -30 -10 -67 -21 -82 -23 -42 -5 -69 -19 -159 -81 -33 -23 -114 -108 -129
-135 -5 -10 -20 -29 -33 -42 -92 -94 -89 -88 -81 -157 8 -74 22 -94 44 -65 14
18 14 17 15 -13 0 -29 -3 -33 -27 -33 l-28 -1 25 -21 25 -20 3 21 c2 15 11 21
29 21 l25 0 -7 -77 c-10 -98 -8 -137 11 -191 8 -24 12 -47 9 -52 -3 -5 -1 -11
5 -15 5 -3 10 1 10 9 0 9 4 16 9 16 15 0 18 -179 4 -185 -7 -2 -13 -9 -13 -15
0 -6 -7 -18 -16 -27 -8 -9 -13 -22 -10 -29 6 -16 -10 -28 -19 -14 -3 5 -14 10
-23 9 -11 0 -12 -3 -4 -6 19 -8 14 -23 -8 -23 -12 0 -30 -9 -42 -20 -12 -11
-36 -23 -55 -26 -18 -3 -30 -10 -28 -15 5 -7 -35 -35 -42 -31 -3 2 -23 -4 -50
-15 -10 -3 -20 -7 -23 -8 -3 -1 -12 -5 -20 -8 -22 -10 -230 -84 -265 -94 l-30
-10 -3 -546 -2 -547 1475 0 c1141 0 1475 3 1475 12 0 9 3 9 12 0 7 -7 29 -12
49 -12 33 0 39 4 54 38 10 20 23 40 29 44 6 4 7 10 4 14 -4 3 -19 -7 -34 -22
-14 -16 -32 -28 -40 -26 -8 2 -14 -4 -14 -13 0 -8 -5 -15 -11 -15 -19 0 0 53
27 78 14 12 32 22 40 22 8 0 14 7 14 16 0 13 -2 14 -21 0 -21 -14 -49 -12 -49
5 0 5 8 9 18 9 25 0 65 95 57 137 -4 20 -2 33 5 33 5 0 10 5 10 10 0 6 -4 10
-10 10 -5 0 -19 9 -30 20 -11 11 -27 20 -35 20 -18 0 -20 16 -2 24 8 4 7 5 -3
5 -8 -1 -28 -1 -43 0 l-28 1 18 30 c9 16 21 30 25 30 4 0 5 6 2 14 -3 8 -1 17
5 21 20 12 11 25 -16 25 l-28 0 29 15 c15 8 35 15 43 15 12 0 13 3 4 14 -10
12 -9 13 8 9 11 -3 30 2 43 11 25 18 8 22 -23 6 -16 -9 -19 -7 -19 9 0 11 -8
25 -17 31 -16 10 -15 11 5 7 14 -3 22 0 22 8 0 10 -9 11 -37 4 -21 -4 -38 -7
-39 -6 -1 1 -5 12 -8 24 -8 24 29 67 50 59 7 -3 14 3 17 12 3 9 8 26 12 37 5
16 5 17 -4 5 -9 -13 -11 -13 -11 3 0 9 -5 17 -11 17 -6 0 -8 -8 -4 -19 3 -11
1 -22 -5 -26 -5 -3 -10 -1 -10 5 0 7 -6 10 -12 7 -7 -2 -12 -10 -10 -16 5 -23
-16 -10 -22 14 -8 30 -21 32 -35 6 -6 -10 -18 -21 -26 -25 -13 -5 -15 -1 -9
16 5 17 3 20 -10 15 -9 -4 -16 -2 -16 2 0 5 7 12 16 15 8 3 12 10 9 16 -3 6
-16 -1 -29 -15 -28 -30 -41 -33 -26 -6 7 14 7 22 -1 26 -6 4 -11 5 -12 4 -1
-2 -11 -14 -22 -27 l-19 -24 24 -18 25 -19 -25 -9 c-30 -12 -37 -7 -20 13 11
13 8 15 -19 15 -17 0 -31 5 -31 10 0 6 6 10 14 10 8 0 16 7 20 15 3 8 12 15
21 15 8 0 15 5 15 10 0 6 -10 8 -24 4 -14 -3 -33 -1 -43 4 -14 8 -8 10 27 8
44 -2 80 10 80 28 0 4 -9 6 -20 3 -16 -4 -20 0 -22 21 0 15 0 34 1 42 1 8 1
68 1 133 1 87 4 117 13 115 7 -1 24 8 39 21 22 19 25 27 17 48 -5 13 -6 22 -1
20 4 -2 17 6 29 18 20 21 20 24 5 30 -11 4 -13 8 -5 13 18 11 -18 47 -47 47
-24 0 -25 -4 -31 -67 -3 -38 -8 -70 -11 -73 -3 -3 -8 63 -11 146 -4 83 -11
158 -17 167 -7 14 -9 10 -10 -16 0 -18 -12 -55 -26 -82 -14 -27 -25 -59 -24
-72 1 -13 2 -37 1 -54 -1 -28 -3 -31 -28 -26 -16 2 -33 9 -39 13 -10 8 -17 74
-15 137 0 13 -2 21 -7 19 -4 -3 -7 13 -7 34 0 32 3 39 19 39 18 0 18 1 -3 19
-21 19 -21 19 43 23 57 3 88 12 75 21 -2 1 -41 -1 -86 -6 -79 -9 -82 -10 -85
-35 -2 -19 -10 -28 -25 -30 -13 -2 -23 1 -23 7 0 6 7 8 15 5 19 -8 33 25 15
36 -13 8 -90 7 -340 -5 -135 -6 -150 -9 -221 -40 -47 -21 -86 -32 -100 -28
-19 4 -21 3 -9 -6 13 -9 13 -11 -1 -11 -9 0 -23 8 -30 18 -7 9 -10 14 -5 10 5
-4 18 -2 30 4 11 7 26 13 31 14 6 1 25 9 43 16 32 14 27 15 -104 21 -75 4
-185 7 -244 7 -59 0 -128 3 -154 6 l-47 7 3 116 3 116 480 1 c264 0 507 4 540
9 l60 9 -60 12 c-40 9 -131 13 -277 12 -120 -1 -221 1 -224 5 -4 4 108 7 249
7 l257 0 0 53 c0 29 6 59 13 66 10 11 9 13 -3 9 -8 -3 -16 -19 -18 -36 -4 -43
-22 -41 -22 2 0 30 6 38 48 64 72 46 88 48 95 14 3 -15 3 -47 0 -71 -5 -38 -3
-46 21 -66 14 -12 26 -28 26 -35 0 -7 7 -10 16 -6 9 3 20 6 25 6 14 0 11 27
-21 155 -16 66 -30 147 -30 181 l0 61 -50 -5 c-41 -4 -50 -2 -50 11 0 9 4 18
9 21 10 7 -10 96 -21 96 -39 0 -43 -1 -23 -10 13 -6 -4 -7 -45 -2 -36 4 -80 6
-97 6 -18 0 -33 1 -33 2 0 1 13 12 28 23 24 17 50 21 153 26 198 9 249 15 249
30 0 7 -4 15 -10 17 -5 2 -15 45 -22 96 -17 127 -37 122 -64 -16 -7 -33 -20
-49 -31 -38 -4 3 -5 34 -4 68 2 68 -4 78 -57 78 -29 0 -33 3 -30 23 2 17 11
23 37 25 20 2 37 -2 42 -10 7 -10 12 -11 29 0 11 7 20 8 20 3 0 -13 49 -24
100 -21 35 1 50 8 65 27 11 14 27 34 35 45 13 16 20 18 43 9 21 -8 27 -8 27 4
0 7 -12 16 -27 18 -22 4 -21 5 6 3 l34 -1 1 -60 1 -60 50 -6 50 -6 -52 -1
c-29 -1 -53 -6 -53 -12 0 -17 -53 -11 -74 9 -17 15 -29 18 -56 12 -30 -6 -35
-11 -38 -38 -2 -18 3 -37 13 -47 15 -15 15 -16 -4 -16 -15 0 -21 -6 -21 -21 0
-11 -4 -17 -10 -14 -5 3 -10 -4 -10 -16 0 -16 3 -19 13 -11 6 5 47 12 90 14
66 3 75 1 60 -10 -9 -7 -23 -10 -30 -8 -7 3 -13 -1 -13 -9 0 -18 72 -40 97
-30 10 5 21 7 26 7 12 -3 8 26 -5 30 -19 7 2 28 28 28 13 0 24 5 24 10 0 23
19 7 33 -27 13 -33 19 -37 51 -39 26 0 37 4 41 18 9 26 -3 42 -21 27 -27 -22
-27 0 0 24 28 26 34 47 14 47 -8 0 -9 3 -3 8 6 4 11 14 13 22 2 8 7 16 12 18
5 2 6 10 3 19 -5 12 -3 14 7 8 8 -5 11 -4 6 3 -4 6 10 36 30 66 20 30 34 61
32 68 -3 7 -12 -1 -23 -21 -9 -19 -39 -58 -65 -85 -26 -28 -52 -64 -58 -81
l-10 -30 -1 32 c-1 17 3 33 7 35 26 10 101 122 113 167 13 52 29 68 29 30 0
-11 7 -28 16 -37 15 -15 16 -14 10 6 -6 19 -3 22 21 23 20 1 23 3 8 6 -10 3
-28 11 -40 18 -11 7 -45 19 -76 25 -47 11 -57 16 -57 34 0 11 -11 58 -26 103
-14 46 -31 124 -38 174 -7 52 -15 84 -18 73 -6 -17 -7 -17 -12 2 -6 24 1 46
13 38 5 -3 9 3 9 14 0 36 -29 19 -44 -27 -16 -50 -24 -137 -13 -147 4 -4 -2
-13 -13 -21 -11 -8 -20 -22 -20 -32 0 -15 -34 -30 -176 -77 l-176 -59 88 -8
c49 -4 123 -14 164 -22 41 -8 55 -12 31 -10 -68 6 -33 -18 47 -31 43 -8 55
-12 34 -13 -19 -1 -31 -5 -27 -11 8 -13 4 -13 -41 6 -41 16 -39 12 10 -24 28
-21 24 -28 -8 -16 -9 3 -13 11 -9 17 4 6 -2 8 -15 5 -15 -4 -22 -2 -22 8 0 8
-4 14 -10 14 -5 0 -10 -14 -10 -32 0 -34 -15 -29 -22 7 -2 12 -15 22 -33 26
-17 4 -48 12 -70 18 -22 6 -58 11 -80 11 -27 0 -35 3 -26 9 15 10 7 13 -56 26
-18 4 -33 10 -33 14 0 4 35 17 78 29 258 75 285 85 266 99 -10 7 -27 13 -39
13 -11 0 -31 7 -43 16 -24 16 -42 12 -42 -12 0 -8 -9 -14 -19 -14 -10 0 -22
-7 -25 -17 -6 -14 -12 -11 -41 17 -29 29 -38 32 -70 26 -19 -4 -33 -11 -30
-17 4 -5 -2 -9 -12 -9 -11 0 -23 -4 -28 -9 -6 -5 -23 -11 -39 -13 -23 -2 -34
-13 -54 -50 -21 -38 -31 -48 -51 -48 -15 0 -21 4 -16 8 39 28 41 100 6 158
-14 23 -30 33 -67 41 -27 6 -52 9 -56 7 -16 -10 -7 -44 29 -121 40 -86 48 -82
41 18 -2 32 -1 56 4 53 12 -8 28 -76 28 -122 l0 -43 -107 3 c-88 2 -108 6
-108 18 0 8 -4 16 -10 17 -5 1 -9 -7 -7 -17 3 -19 -4 -20 -200 -21 -112 0
-241 -2 -288 -3 -47 -2 -70 -2 -52 1 17 2 32 7 32 9 0 3 -18 36 -40 72 -44 75
-71 167 -72 248 -1 38 -5 51 -13 44 -6 -5 -16 -5 -24 -1 -18 11 -142 12 -168
1z m129 -5 c11 -4 13 -20 10 -64 -4 -51 9 -116 35 -180 5 -11 -5 -13 -55 -9
-33 4 -65 9 -71 13 -17 10 -13 140 4 182 25 60 41 72 77 58z m1071 -372 c-7
-2 -21 -2 -30 0 -10 3 -4 5 12 5 17 0 24 -2 18 -5z m40 -40 c-7 -2 -19 -2 -25
0 -7 3 -2 5 12 5 14 0 19 -2 13 -5z m254 -85 c-3 -7 -5 -2 -5 12 0 14 2 19 5
13 2 -7 2 -19 0 -25z m-782 -108 c-22 -4 6 -6 65 -3 82 4 102 3 94 -7 -17 -17
-636 -23 -719 -7 -56 11 -47 12 145 17 316 9 461 8 415 0z m362 -11 c13 -5 41
-10 61 -10 26 -1 19 -4 -23 -8 -66 -7 -158 7 -177 28 -11 11 -3 12 50 7 35 -4
75 -11 89 -17z m-345 -98 c17 -16 28 -34 24 -40 -4 -6 -35 -11 -72 -11 -63 0
-65 1 -59 23 8 26 41 57 62 57 8 0 28 -13 45 -29z m841 -17 c-3 -9 -9 -12 -12
-7 -3 4 -10 11 -15 16 -5 4 0 7 12 7 15 0 20 -4 15 -16z m177 -4 c0 -27 -15
-32 -92 -28 -63 3 -65 4 -57 26 8 20 15 22 79 22 64 0 70 -2 70 -20z m-1390
-15 c0 -16 -6 -25 -15 -25 -16 0 -19 9 -9 34 9 25 24 19 24 -9z m902 11 c16
-23 5 -26 -102 -26 -105 0 -110 1 -110 21 0 19 5 20 103 18 59 -1 105 -7 109
-13z m311 -23 c-7 -2 -21 -2 -30 0 -10 3 -4 5 12 5 17 0 24 -2 18 -5z m-258
-33 c-3 -5 -12 -7 -20 -3 -21 7 -19 13 6 13 11 0 18 -4 14 -10z m365 -30 c0
-5 -4 -10 -10 -10 -5 0 -10 5 -10 10 0 6 5 10 10 10 6 0 10 -4 10 -10z m-400
-19 c0 -7 -48 -15 -160 -26 -9 0 -21 -4 -28 -9 -7 -4 -14 -1 -18 8 -4 10 -15
13 -40 9 -38 -6 -49 13 -11 20 44 8 257 7 257 -2z m-370 -17 c0 -9 -5 -14 -12
-12 -18 6 -21 28 -4 28 9 0 16 -7 16 -16z m-7 -78 c3 3 14 1 24 -5 15 -8 13
-9 -12 -7 -16 2 -36 4 -42 5 -7 0 -13 6 -13 11 0 7 6 7 19 1 10 -6 21 -8 24
-5z m-119 -5 c6 -9 -105 -24 -113 -15 -3 3 1 9 9 14 19 12 97 13 104 1z m-154
-11 c0 -5 -18 -10 -40 -10 -52 0 -52 14 0 18 22 1 40 -2 40 -8z m-430 -60 c0
-42 -9 -49 -33 -25 -12 11 -17 12 -20 2 -3 -6 -6 -3 -7 8 -1 11 -3 28 -5 38
-3 13 4 17 31 17 33 0 34 -1 34 -40z m980 26 c0 -2 -9 -6 -20 -9 -11 -3 -20
-1 -20 4 0 5 9 9 20 9 11 0 20 -2 20 -4z m-132 -23 c-10 -2 -28 -2 -40 0 -13
2 -5 4 17 4 22 1 32 -1 23 -4z m-120 -8 c-8 -8 -518 -11 -518 -2 0 4 118 7
262 7 144 0 259 -2 256 -5z m242 -45 c0 -6 -57 -10 -152 -9 -93 1 -141 4 -123
9 46 12 275 12 275 0z m-800 -10 c-81 -12 -160 -11 -160 0 0 6 42 9 108 9 94
-2 100 -3 52 -9z m270 0 c0 -6 -31 -10 -74 -10 -41 0 -78 5 -81 10 -4 6 23 10
74 10 47 0 81 -4 81 -10z m515 -80 c-29 -11 -243 -42 -285 -40 -19 0 -43 1
-52 1 -13 0 -16 19 -4 30 2 3 238 15 301 17 41 0 53 -2 40 -8z m72 -6 c-3 -3
-12 -4 -19 -1 -8 3 -5 6 6 6 11 1 17 -2 13 -5z m-359 -69 c0 -15 -6 -25 -14
-25 -17 0 -18 37 -1 43 6 3 13 6 13 6 1 1 2 -10 2 -24z m101 21 c-10 -10 -79
-24 -79 -16 0 8 22 14 69 19 8 0 12 -1 10 -3z m349 -13 c3 -10 -13 -13 -58
-13 -75 0 -120 -26 -112 -66 l4 -24 -158 1 c-157 0 -224 9 -176 21 12 4 22 13
22 21 0 18 119 58 204 67 102 11 269 7 274 -7z m-2028 -83 c0 -22 -4 -40 -10
-40 -5 0 -10 18 -10 40 0 22 5 40 10 40 6 0 10 -18 10 -40z m1340 20 c13 -9
13 -10 0 -10 -8 0 -22 5 -30 10 -13 9 -13 10 0 10 8 0 22 -5 30 -10z m-70 -19
c0 -11 -26 -21 -53 -20 -19 1 -18 3 8 14 36 17 45 18 45 6z m90 -11 c0 -5 -4
-10 -10 -10 -5 0 -10 5 -10 10 0 6 5 10 10 10 6 0 10 -4 10 -10z m-203 -60
c-2 -48 -17 -54 -17 -7 0 29 6 47 16 47 2 0 3 -18 1 -40z m-35 -15 c10 -58 9
-115 -1 -115 -35 0 -41 13 -41 87 0 65 2 74 17 71 12 -2 20 -17 25 -43z m-162
-400 c0 -8 6 -15 13 -15 11 0 12 -10 5 -47 -5 -27 -11 -61 -14 -78 -11 -60
-15 -61 -39 -15 -27 55 -44 146 -23 134 10 -6 11 -5 1 8 -16 19 -7 28 29 28
18 0 28 -5 28 -15z m174 -83 c12 -35 14 -56 7 -73 -7 -16 -10 -19 -10 -7 -1
23 -21 34 -32 17 -6 -10 -9 -8 -9 10 0 22 20 101 26 101 1 0 10 -22 18 -48z
m1065 -471 c2 -1 -4 -10 -14 -21 -12 -13 -14 -20 -5 -20 7 0 10 -7 7 -15 -4
-8 -1 -17 4 -21 6 -4 -3 -20 -23 -40 -36 -36 -63 -47 -33 -14 23 25 27 47 12
57 -7 4 -2 10 13 14 24 7 24 7 4 14 -30 9 -21 56 10 51 11 -3 23 -5 25 -5z m6
-201 c-3 -5 -11 -10 -16 -10 -6 0 -7 5 -4 10 3 6 11 10 16 10 6 0 7 -4 4 -10z
m205 -35 c0 -8 -7 -15 -15 -15 -26 0 -18 20 13 29 1 1 2 -6 2 -14z m-94 -48
c-24 -48 -43 -70 -55 -62 -6 3 -11 -1 -11 -9 0 -9 -7 -16 -15 -16 -21 0 -19
18 5 32 20 13 20 13 -2 30 l-23 18 25 1 c14 1 32 2 40 3 8 0 21 14 29 31 8 17
16 24 19 17 2 -7 -3 -27 -12 -45z m-131 4 c6 -10 -42 -67 -50 -59 -3 2 5 15
18 29 12 13 21 27 20 31 -4 11 5 10 12 -1z m160 -32 c-5 -21 -4 -29 3 -25 6 3
14 1 18 -6 7 -10 -50 -68 -67 -68 -20 0 -16 46 7 75 13 17 24 37 24 43 0 7 5
12 11 12 7 0 8 -11 4 -31z m-137 -24 c-2 -16 -6 -21 -12 -15 -7 7 -15 0 -26
-22 -15 -32 -40 -49 -40 -28 0 13 61 90 72 90 4 0 7 -11 6 -25z m207 15 c3 -5
1 -10 -4 -10 -6 0 -11 5 -11 10 0 6 2 10 4 10 3 0 8 -4 11 -10z m33 -66 c2 -1
-5 -7 -16 -13 -17 -9 -20 -7 -18 13 1 20 4 22 16 13 8 -6 17 -12 18 -13z
m-203 -14 c-3 -5 -11 -10 -16 -10 -6 0 -7 5 -4 10 3 6 11 10 16 10 6 0 7 -4 4
-10z m35 -25 c0 -8 -9 -15 -20 -15 -11 0 -20 -4 -20 -10 0 -5 -4 -10 -10 -10
-18 0 -10 22 10 27 11 3 20 9 20 14 0 5 5 9 10 9 6 0 10 -7 10 -15z m52 -14
c-6 -3 -14 -19 -18 -35 -5 -23 -11 -27 -30 -23 -25 4 -33 -8 -11 -16 6 -3 -3
-4 -20 -4 -31 2 -49 27 -19 27 8 0 17 7 20 16 3 9 13 14 21 11 8 -4 16 2 20
14 4 10 13 19 21 19 8 0 14 6 15 13 0 8 2 8 6 -2 3 -7 1 -16 -5 -20z m48 -16
c0 -8 6 -15 14 -15 8 0 18 -5 22 -12 5 -8 2 -9 -9 -5 -9 3 -19 2 -22 -3 -12
-19 -22 -9 -21 20 1 30 16 44 16 15z m-183 -17 c-3 -8 -6 -5 -6 6 -1 11 2 17
5 13 3 -3 4 -12 1 -19z m153 -38 c0 -5 -5 -10 -11 -10 -5 0 -7 5 -4 10 3 6 8
10 11 10 2 0 4 -4 4 -10z m81 -120 c5 0 9 8 9 17 0 12 3 14 11 6 7 -7 4 -17
-13 -34 l-24 -24 0 35 c-1 19 1 27 3 18 3 -10 9 -18 14 -18z m94 -140 c-3 -5
-11 -10 -16 -10 -6 0 -7 5 -4 10 3 6 11 10 16 10 6 0 7 -4 4 -10z m-75 -150
c0 -5 -7 -7 -15 -4 -8 4 -15 8 -15 10 0 2 7 4 15 4 8 0 15 -4 15 -10z"/>
<path d="M8430 3335 c-62 -13 -223 -44 -265 -51 -31 -5 -230 -42 -375 -70 -41
-8 -91 -17 -110 -20 -19 -3 -95 -17 -168 -30 -73 -13 -138 -24 -144 -24 -6 0
-9 -2 -6 -5 3 -3 129 15 279 40 387 65 806 134 857 142 26 3 42 11 42 19 0 17
-24 16 -110 -1z"/>
<path d="M3270 3293 c1 -19 27 -48 43 -49 27 -3 21 31 -8 44 -30 14 -35 15
-35 5z"/>
<path d="M1920 3272 c0 -6 12 -15 28 -21 l27 -11 -27 5 c-20 4 -28 1 -28 -9 0
-27 27 -38 74 -31 36 6 46 11 46 26 0 21 -24 33 -84 44 -22 5 -36 3 -36 -3z"/>
<path d="M6570 3260 c0 -11 5 -20 10 -20 6 0 10 -5 10 -11 0 -5 -4 -7 -10 -4
-6 4 -10 -25 -10 -79 0 -70 3 -86 15 -86 12 0 15 16 15 88 0 92 -7 132 -21
132 -5 0 -9 -9 -9 -20z"/>
<path d="M2858 3233 c6 -2 18 -2 25 0 6 3 1 5 -13 5 -14 0 -19 -2 -12 -5z"/>
<path d="M3420 3183 c1 -16 9 -66 19 -113 16 -74 19 -82 29 -63 17 31 5 174
-16 191 -24 19 -32 15 -32 -15z"/>
<path d="M2848 3193 c7 -3 16 -2 19 1 4 3 -2 6 -13 5 -11 0 -14 -3 -6 -6z"/>
<path d="M3055 3180 c-3 -5 -1 -10 4 -10 6 0 11 5 11 10 0 6 -2 10 -4 10 -3 0
-8 -4 -11 -10z"/>
<path d="M2871 3128 c13 -18 25 -26 27 -19 2 6 -6 21 -19 31 -31 28 -34 25 -8
-12z"/>
<path d="M3500 3074 c0 -38 -7 -96 -15 -129 -8 -33 -15 -78 -15 -100 -1 -33
-3 -37 -13 -25 -7 9 -39 21 -72 27 -33 6 -66 13 -74 15 -11 2 -13 -14 -12 -80
2 -67 -1 -88 -15 -103 -9 -10 -23 -19 -30 -19 -7 0 -15 -3 -17 -7 -3 -5 20 -9
50 -10 48 -2 54 0 49 15 -4 12 0 10 13 -5 11 -13 26 -23 33 -23 15 0 78 57 78
70 0 4 12 11 26 14 22 6 36 -3 95 -59 38 -36 73 -65 78 -65 5 0 12 28 17 63 4
34 9 69 11 77 14 72 14 110 1 141 -9 19 -20 45 -26 59 -8 18 -11 20 -11 8 -1
-10 -5 -18 -10 -18 -6 0 -6 -11 0 -29 7 -19 7 -36 1 -47 -7 -12 -12 4 -21 62
-9 61 -21 94 -51 145 -21 36 -46 71 -54 79 -14 11 -16 5 -16 -56z m93 -371 c2
-10 8 -27 12 -38 6 -17 4 -17 -14 4 -22 24 -28 51 -12 51 5 0 11 -8 14 -17z
m52 -33 c3 -5 -1 -10 -9 -10 -9 0 -16 5 -16 10 0 6 4 10 9 10 6 0 13 -4 16
-10z"/>
<path d="M7303 3123 c9 -2 23 -2 30 0 6 3 -1 5 -18 5 -16 0 -22 -2 -12 -5z"/>
<path d="M7243 3113 c9 -2 23 -2 30 0 6 3 -1 5 -18 5 -16 0 -22 -2 -12 -5z"/>
<path d="M7188 3103 c6 -2 18 -2 25 0 6 3 1 5 -13 5 -14 0 -19 -2 -12 -5z"/>
<path d="M7128 3093 c6 -2 18 -2 25 0 6 3 1 5 -13 5 -14 0 -19 -2 -12 -5z"/>
<path d="M7068 3083 c7 -3 16 -2 19 1 4 3 -2 6 -13 5 -11 0 -14 -3 -6 -6z"/>
<path d="M6948 3063 c7 -3 16 -2 19 1 4 3 -2 6 -13 5 -11 0 -14 -3 -6 -6z"/>
<path d="M1912 3033 c2 -14 9 -28 16 -31 18 -6 15 45 -4 52 -12 5 -15 0 -12
-21z"/>
<path d="M3626 3020 c3 -19 6 -48 6 -65 l-1 -30 10 32 c7 24 5 41 -6 65 l-15
33 6 -35z"/>
<path d="M6245 3012 c-32 -3 -36 -6 -20 -12 13 -6 -14 -9 -72 -9 -67 -1 -93
-4 -93 -13 -1 -18 1 -248 5 -539 2 -135 0 -251 -4 -258 -6 -9 -13 -9 -34 0
-15 7 -27 17 -27 23 0 6 -3 7 -10 0 -16 -16 0 -52 28 -59 15 -4 29 -11 33 -16
8 -13 341 -24 404 -14 28 5 42 10 32 12 -24 6 -11 23 19 23 23 0 24 3 24 59 0
58 -1 60 -27 63 l-28 3 -3 308 -2 307 24 0 c19 0 25 6 28 28 3 23 9 28 43 34
28 5 21 6 -28 4 -73 -4 -96 8 -48 25 17 6 31 17 31 25 0 11 -23 14 -117 12
-65 -1 -136 -3 -158 -6z m185 -126 l0 -73 -46 -7 c-26 -3 -100 -6 -165 -6
l-119 0 0 80 0 80 165 0 165 0 0 -74z m-2 -198 l3 -76 -73 -7 c-40 -3 -113 -5
-163 -3 l-90 3 -3 77 -3 77 153 3 c84 2 158 3 163 2 6 0 11 -35 13 -76z m5
-156 c6 -29 -1 -113 -10 -122 -7 -8 -270 -13 -298 -6 -24 6 -25 10 -25 81 l0
75 164 0 164 0 5 -28z m1 -203 c10 -50 7 -107 -6 -115 -15 -10 -270 -18 -303
-10 -24 6 -25 9 -25 81 l0 75 164 0 164 0 6 -31z"/>
<path d="M6651 2994 c0 -11 3 -14 6 -6 3 7 2 16 -1 19 -3 4 -6 -2 -5 -13z"/>
<path d="M5975 2971 c-3 -5 -1 -12 5 -16 5 -3 10 1 10 9 0 18 -6 21 -15 7z"/>
<path d="M6647 2903 c-4 -38 -7 -311 -7 -608 0 -418 3 -536 12 -527 7 7 12 37
12 68 1 59 2 60 61 40 11 -4 2 3 -20 14 l-40 22 -4 526 c-1 290 -4 528 -5 530
-2 1 -6 -28 -9 -65z"/>
<path d="M2685 2950 c3 -5 15 -10 25 -10 10 0 22 -4 25 -10 3 -5 18 -10 33
-10 22 1 17 5 -23 20 -56 22 -69 24 -60 10z"/>
<path d="M4423 2883 c-12 -30 2 -48 40 -51 36 -3 37 -3 37 33 0 35 -1 36 -36
33 -20 -1 -38 -8 -41 -15z"/>
<path d="M5038 2833 c-30 -5 -33 -10 -19 -31 8 -14 161 -16 266 -3 l50 6 -40
6 c-37 6 -35 6 20 8 87 3 108 16 30 19 -40 1 -81 -4 -104 -14 -22 -8 -56 -14
-77 -11 -37 3 -36 4 9 5 77 3 44 21 -36 20 -39 -1 -84 -3 -99 -5z m72 -23 c0
-5 -4 -10 -10 -10 -5 0 -10 5 -10 10 0 6 5 10 10 10 6 0 10 -4 10 -10z"/>
<path d="M5843 2793 c-15 -5 -18 -33 -4 -33 5 0 12 -10 14 -22 2 -13 5 -4 6
20 0 23 0 42 -1 41 -2 0 -9 -3 -15 -6z"/>
<path d="M4560 2780 c0 -5 5 -10 11 -10 5 0 7 5 4 10 -3 6 -8 10 -11 10 -2 0
-4 -4 -4 -10z"/>
<path d="M3281 2754 c0 -11 3 -14 6 -6 3 7 2 16 -1 19 -3 4 -6 -2 -5 -13z"/>
<path d="M4393 2688 c-2 -48 2 -72 12 -82 20 -20 19 -26 -5 -26 -11 0 -20 -7
-20 -15 0 -12 16 -15 88 -14 48 0 81 3 75 6 -7 2 -13 11 -13 19 0 9 -5 12 -10
9 -6 -4 -8 -11 -5 -16 4 -5 1 -9 -4 -9 -6 0 -11 9 -11 20 0 11 5 20 10 20 6 0
10 30 10 70 0 39 -4 70 -8 70 -5 0 -7 -29 -5 -65 l4 -65 -44 0 c-40 0 -45 3
-50 25 -2 14 -1 40 3 58 5 18 8 26 9 18 1 -8 4 -11 8 -8 3 4 -5 17 -18 29
l-24 23 -2 -67z m85 -115 c-10 -2 -26 -2 -35 0 -10 3 -2 5 17 5 19 0 27 -2 18
-5z"/>
<path d="M4680 2740 c0 -5 17 -10 38 -10 27 0 33 3 22 10 -20 13 -60 13 -60 0z"/>
<path d="M4465 2701 c-3 -5 -1 -12 5 -16 5 -3 10 1 10 9 0 18 -6 21 -15 7z"/>
<path d="M4995 2661 c-3 -5 -1 -12 5 -16 6 -4 8 -11 5 -16 -4 -5 27 -9 74 -9
60 0 81 3 81 13 0 28 -149 53 -165 28z"/>
<path d="M3193 2589 c-48 -44 -54 -60 -21 -51 14 3 19 2 14 -6 -4 -7 -14 -12
-22 -12 -8 0 -14 -6 -14 -14 0 -11 13 -13 63 -9 69 6 78 10 58 23 -12 7 -12
11 2 24 8 9 25 16 36 16 12 0 21 6 21 15 0 9 -9 15 -25 15 -16 0 -25 -6 -25
-16 0 -29 -25 -8 -28 24 -2 18 -6 32 -10 32 -4 0 -26 -19 -49 -41z"/>
<path d="M5843 2613 c-18 -7 -16 -43 2 -43 9 0 15 9 15 25 0 14 -1 25 -2 24
-2 0 -9 -3 -15 -6z"/>
<path d="M4560 2560 c0 -5 16 -10 35 -10 19 0 35 5 35 10 0 6 -16 10 -35 10
-19 0 -35 -4 -35 -10z"/>
<path d="M5198 2492 c-22 -4 -24 -47 -3 -56 10 -3 17 3 21 19 8 32 3 42 -18
37z"/>
<path d="M4964 2467 c1 -11 6 -22 13 -24 15 -5 13 35 -3 41 -6 2 -11 -5 -10
-17z"/>
<path d="M4071 2444 c0 -11 3 -14 6 -6 3 7 2 16 -1 19 -3 4 -6 -2 -5 -13z"/>
<path d="M3311 2434 c0 -11 3 -14 6 -6 3 7 2 16 -1 19 -3 4 -6 -2 -5 -13z"/>
<path d="M5842 2422 c-7 -5 -10 -16 -6 -25 9 -25 24 -20 24 8 0 28 0 28 -18
17z"/>
<path d="M3247 2384 c-4 -7 -2 -35 3 -64 6 -29 10 -68 10 -86 0 -19 5 -34 11
-34 8 0 10 16 5 53 -13 104 -21 142 -29 131z"/>
<path d="M2760 2366 c0 -8 5 -18 10 -21 6 -3 10 3 10 14 0 12 -4 21 -10 21 -5
0 -10 -6 -10 -14z"/>
<path d="M2650 2350 c0 -11 5 -20 10 -20 6 0 10 9 10 20 0 11 -4 20 -10 20 -5
0 -10 -9 -10 -20z"/>
<path d="M2985 2345 l-140 -23 110 -1 c61 0 144 2 185 5 65 5 76 9 77 25 2 16
-5 19 -45 18 -26 -1 -110 -12 -187 -24z"/>
<path d="M2612 2343 c5 -25 28 -28 28 -4 0 12 -6 21 -16 21 -9 0 -14 -7 -12
-17z"/>
<path d="M3310 2330 c-19 -4 -28 -8 -20 -10 23 -4 44 1 55 11 5 5 7 8 5 8 -3
-1 -21 -5 -40 -9z"/>
<path d="M3653 2333 c9 -2 23 -2 30 0 6 3 -1 5 -18 5 -16 0 -22 -2 -12 -5z"/>
<path d="M2644 2277 c-5 -13 28 -194 43 -234 5 -14 13 -19 21 -14 10 6 9 22
-2 82 -26 134 -28 167 -8 172 9 3 2 5 -16 6 -18 0 -35 -5 -38 -12z"/>
<path d="M3120 2280 l-25 -7 25 -7 c16 -4 37 -1 55 8 l30 16 -30 -1 c-16 -1
-41 -4 -55 -9z"/>
<path d="M2760 2270 c-13 -8 -12 -10 3 -10 9 0 17 5 17 10 0 12 -1 12 -20 0z"/>
<path d="M3060 2271 c0 -5 5 -13 10 -16 6 -3 10 -2 10 4 0 5 -4 13 -10 16 -5
3 -10 2 -10 -4z"/>
<path d="M2890 2250 c-25 -22 -20 -26 11 -9 17 9 21 7 26 -10 7 -26 23 -28 23
-3 0 18 -18 42 -30 42 -4 0 -17 -9 -30 -20z"/>
<path d="M3199 2265 c-10 -10 15 -134 28 -139 17 -7 17 21 1 91 -12 50 -18 60
-29 48z"/>
<path d="M5895 2250 c-4 -6 15 -10 50 -10 35 0 54 4 50 10 -3 6 -26 10 -50 10
-24 0 -47 -4 -50 -10z"/>
<path d="M3161 2228 c0 -13 4 -32 9 -43 7 -15 9 -10 9 23 1 23 -3 42 -9 42 -5
0 -10 -10 -9 -22z"/>
<path d="M3105 2230 c-3 -5 -1 -10 4 -10 6 0 11 -6 11 -14 0 -20 -35 -29 -78
-21 -25 5 -74 -3 -169 -27 l-133 -33 0 -61 c0 -61 0 -61 28 -58 l27 4 -27 -11
c-16 -6 -28 -17 -28 -24 0 -14 33 -9 109 19 45 16 82 21 46 6 -30 -13 3 -12
40 1 20 8 42 28 58 55 l27 44 -30 0 c-16 0 -32 5 -35 10 -4 6 25 9 82 9 64 -1
77 -4 48 -8 l-40 -7 39 -8 c22 -4 35 -11 30 -14 -6 -4 -11 -37 -11 -74 l-1
-68 57 0 c32 0 63 5 70 13 10 10 12 2 7 -43 -19 -182 -19 -178 2 -214 12 -20
16 -38 11 -43 -15 -15 -16 -115 -1 -120 6 -3 12 2 12 11 0 18 36 40 50 31 6
-3 10 -13 10 -21 0 -8 5 -14 11 -14 6 0 9 6 6 13 -2 6 0 22 4 34 5 14 4 25 -3
29 -7 4 -8 3 -4 -4 5 -8 1 -10 -10 -5 -15 5 -15 7 0 15 9 5 21 6 26 3 6 -4 9
-3 8 2 -2 4 8 19 20 31 24 24 24 24 4 38 -35 24 -37 91 -7 190 5 15 2 21 -9
21 -9 0 -16 -4 -16 -9 0 -5 -11 -25 -24 -45 -20 -29 -24 -45 -21 -84 5 -51 -4
-60 -35 -38 -12 9 -12 10 4 5 16 -5 17 -4 7 8 -19 22 0 166 21 166 5 0 6 5 3
10 -3 6 4 14 17 19 23 10 22 10 -4 10 -16 1 -28 5 -28 9 0 5 13 7 29 4 28 -4
30 -1 37 34 5 25 3 39 -5 42 -19 6 -12 32 10 32 11 0 18 4 15 9 -8 12 -46 2
-46 -13 0 -6 -9 -19 -20 -28 -17 -16 -21 -16 -35 -2 -8 9 -13 20 -10 25 4 5 1
9 -4 9 -6 0 -11 8 -11 18 0 14 -9 19 -42 21 -23 1 -45 4 -50 7 -4 3 -8 32 -8
65 0 52 -2 59 -19 59 -11 0 -23 -4 -26 -10z m-22 -97 c-13 -2 -35 -2 -50 0
-16 2 -5 4 22 4 28 0 40 -2 28 -4z m-163 -23 c0 -6 -30 -10 -70 -10 -40 0 -70
4 -70 10 0 6 30 10 70 10 40 0 70 -4 70 -10z m423 -434 c25 -19 3 -31 -23 -13
-11 8 -17 17 -13 20 9 10 15 8 36 -7z"/>
<path d="M2748 2213 c7 -3 16 -2 19 1 4 3 -2 6 -13 5 -11 0 -14 -3 -6 -6z"/>
<path d="M2850 2200 c-11 -8 -7 -9 15 -4 37 8 45 14 19 14 -10 0 -26 -5 -34
-10z"/>
<path d="M2740 2177 c0 -9 10 -12 31 -9 22 3 27 7 18 13 -21 13 -49 11 -49 -4z"/>
<path d="M5890 2169 c0 -5 5 -7 10 -4 6 3 10 8 10 11 0 2 -4 4 -10 4 -5 0 -10
-5 -10 -11z"/>
<path d="M3260 2095 c0 -8 2 -15 4 -15 2 0 6 7 10 15 3 8 1 15 -4 15 -6 0 -10
-7 -10 -15z"/>
<path d="M6515 2070 c-16 -6 -14 -8 13 -18 18 -6 30 -7 27 -2 -3 4 0 10 7 12
7 3 4 7 -7 10 -11 3 -29 2 -40 -2z"/>
<path d="M6536 1982 c5 -62 27 -117 46 -114 9 1 19 -2 23 -8 3 -6 0 -7 -9 -4
-9 3 -16 2 -16 -4 0 -5 8 -13 17 -16 15 -6 15 -8 3 -16 -13 -8 -12 -10 2 -10
21 0 27 20 26 102 0 69 -13 96 -42 85 -8 -3 -20 1 -26 9 -20 23 -28 16 -24
-24z m60 -54 c-13 -7 -14 -13 -6 -23 9 -11 7 -14 -8 -12 -13 1 -18 6 -14 17 9
26 24 40 34 34 6 -4 4 -11 -6 -16z"/>
<path d="M6775 1856 c57 -28 144 -66 232 -102 209 -87 351 -146 543 -228 753
-322 976 -416 984 -416 3 0 6 13 6 28 0 27 -6 31 -172 97 -95 38 -225 90 -288
116 -63 26 -189 76 -280 112 -91 36 -275 109 -410 162 -135 53 -284 112 -331
131 -48 19 -90 34 -94 34 -4 0 -21 6 -38 14 -95 40 -134 56 -157 61 -21 4 -21
3 5 -9z"/>
<path d="M3390 1790 c0 -11 5 -20 10 -20 6 0 10 9 10 20 0 11 -4 20 -10 20 -5
0 -10 -9 -10 -20z"/>
<path d="M2796 1684 c-8 -21 -8 -20 10 -38 22 -23 71 -20 84 4 9 17 6 21 -26
35 -46 19 -60 19 -68 -1z"/>
<path d="M620 1530 c0 -5 5 -10 10 -10 6 0 10 5 10 10 0 6 -4 10 -10 10 -5 0
-10 -4 -10 -10z"/>
<path d="M8385 1040 c3 -5 8 -10 11 -10 2 0 4 5 4 10 0 6 -5 10 -11 10 -5 0
-7 -4 -4 -10z"/>
<path d="M8477 999 c7 -7 15 -10 18 -7 3 3 -2 9 -12 12 -14 6 -15 5 -6 -5z"/>
<path d="M3086 766 c3 -9 -5 -16 -23 -21 -25 -7 -26 -8 -8 -15 13 -5 24 -3 31
6 6 8 16 14 23 14 17 0 13 17 -5 24 -22 9 -24 8 -18 -8z"/>
<path d="M2980 690 c0 -11 5 -20 10 -20 6 0 10 9 10 20 0 11 -4 20 -10 20 -5
0 -10 -9 -10 -20z"/>
<path d="M3160 670 c0 -5 4 -10 9 -10 6 0 13 5 16 10 3 6 -1 10 -9 10 -9 0
-16 -4 -16 -10z"/>
<path d="M3235 669 c-4 -6 -5 -13 -2 -16 7 -7 27 6 27 18 0 12 -17 12 -25 -2z"/>
<path d="M7950 661 c0 -5 7 -12 16 -15 24 -9 28 -7 14 9 -14 17 -30 20 -30 6z"/>
<path d="M8010 655 c19 -11 21 -14 8 -15 -10 0 -18 -4 -18 -9 0 -5 9 -7 20 -4
11 3 20 1 20 -5 0 -5 10 -13 23 -17 14 -4 18 -8 9 -12 -8 -3 -19 0 -25 6 -19
19 -34 12 -29 -14 2 -15 0 -25 -7 -25 -6 0 -11 12 -11 28 0 19 -3 23 -9 13
-14 -22 -11 -79 5 -92 8 -6 14 -17 14 -23 0 -6 -4 -5 -9 3 -7 10 -11 5 -16
-18 -8 -38 -21 -39 -59 -6 -16 14 -34 25 -40 25 -6 0 -4 -5 4 -10 10 -6 11
-10 3 -10 -7 0 -13 -7 -13 -15 0 -8 5 -15 12 -15 6 0 9 -3 6 -6 -6 -5 -47 14
-58 27 -12 13 -40 18 -40 6 0 -25 13 -57 20 -52 5 3 11 1 15 -5 3 -5 -1 -10
-9 -10 -9 0 -16 -9 -16 -20 0 -11 -4 -20 -10 -20 -5 0 -10 9 -10 20 0 22 -16
27 -23 8 -3 -10 -7 -10 -20 0 -13 11 -20 11 -42 -4 -14 -9 -29 -14 -33 -10 -3
4 0 11 7 16 9 5 1 8 -24 8 l-39 0 47 -44 c55 -51 49 -57 -14 -14 -54 36 -55
36 -61 5 -4 -19 -1 -25 11 -25 9 0 33 -18 54 -40 21 -23 46 -40 59 -41 23 0
23 0 -2 -10 -19 -8 -27 -6 -36 5 -15 21 -30 20 -38 0 -6 -16 -18 -16 -60 1
-16 7 -17 6 -7 -13 29 -54 4 -56 -30 -2 -26 39 -27 39 -44 20 -15 -17 -16 -21
-2 -34 8 -8 17 -13 20 -10 2 3 7 -2 10 -11 5 -11 -1 -15 -21 -16 -22 0 -23 -2
-9 -8 17 -6 17 -8 4 -19 -10 -9 -17 -10 -22 -2 -11 18 -25 11 -25 -14 0 -13
-5 -26 -11 -28 -19 -6 22 -40 42 -35 21 6 34 -7 24 -23 -4 -7 -11 -7 -18 -2
-7 5 -23 8 -37 7 -14 -2 -28 -4 -32 -4 -5 -1 -8 -10 -8 -20 0 -19 13 -20 565
-21 l565 -1 0 176 c0 96 -4 175 -8 175 -7 0 -117 67 -304 185 -32 20 -63 33
-70 29 -6 -4 -8 -3 -5 3 3 5 -15 20 -41 34 -26 13 -49 27 -50 32 -4 9 -57 37
-69 37 -4 -1 3 -7 17 -15z m113 -92 c-4 -9 -10 -10 -24 -2 -24 13 -24 14 5 14
14 0 22 -5 19 -12z m-158 -153 c3 -5 1 -10 -4 -10 -6 0 -11 5 -11 10 0 6 2 10
4 10 3 0 8 -4 11 -10z m-25 -34 c0 -3 -4 -8 -10 -11 -5 -3 -10 -1 -10 4 0 6 5
11 10 11 6 0 10 -2 10 -4z m-186 -19 c11 -8 17 -20 14 -28 -3 -8 2 -19 9 -24
12 -9 10 -11 -6 -11 -14 0 -22 9 -26 28 -4 15 -13 28 -21 28 -9 0 -12 5 -9 10
8 13 18 13 39 -3z m171 -27 c3 -5 -1 -10 -10 -10 -9 0 -13 5 -10 10 3 6 8 10
10 10 2 0 7 -4 10 -10z m-245 -36 c0 -8 -5 -12 -10 -9 -6 4 -8 11 -5 16 9 14
15 11 15 -7z m-7 -94 c7 0 4 -5 -6 -11 -18 -11 -37 -5 -37 13 0 5 7 7 16 4 9
-3 21 -6 27 -6z m67 -19 c0 -6 -5 -13 -10 -16 -8 -5 -7 -12 2 -23 11 -13 11
-14 -8 -4 -29 15 -60 9 -56 -13 2 -10 -1 -14 -7 -10 -23 13 -11 43 19 50 16 4
32 11 35 16 8 12 25 12 25 0z m-114 -26 c4 -9 -1 -30 -10 -48 -8 -18 -16 -25
-16 -15 0 9 -5 18 -12 20 -7 3 -9 12 -4 23 6 17 9 17 17 5 8 -12 10 -10 6 8
-6 25 10 31 19 7z m189 -5 c-3 -5 -11 -10 -16 -10 -6 0 -7 5 -4 10 3 6 11 10
16 10 6 0 7 -4 4 -10z m-246 -40 c3 -24 2 -24 -16 -7 -26 23 -36 21 -28 -5 5
-18 4 -20 -4 -8 -6 8 -11 23 -11 33 0 31 54 19 59 -13z m148 -17 c3 -7 -4 -11
-16 -10 -12 1 -21 7 -21 15 0 16 32 12 37 -5z m-60 -18 c0 -17 0 -17 -22 -9
-13 5 -14 8 -3 15 19 12 25 11 25 -6z"/>
<path d="M7867 570 c3 -12 0 -20 -6 -20 -24 0 0 -18 29 -22 37 -6 38 7 4 38
-31 29 -34 30 -27 4z"/>
<path d="M7830 560 c-9 -6 -10 -10 -3 -10 6 0 15 5 18 10 8 12 4 12 -15 0z"/>
<path d="M7933 553 c9 -9 19 -14 23 -11 10 10 -6 28 -24 28 -15 0 -15 -1 1
-17z"/>
<path d="M3156 495 c-3 -8 -1 -15 4 -15 6 0 10 7 10 15 0 8 -2 15 -4 15 -2 0
-6 -7 -10 -15z"/>
<path d="M7930 495 c7 -9 15 -13 17 -11 7 7 -7 26 -19 26 -6 0 -6 -6 2 -15z"/>
<path d="M7835 480 c3 -5 10 -10 16 -10 5 0 9 5 9 10 0 6 -7 10 -16 10 -8 0
-12 -4 -9 -10z"/>
<path d="M7765 440 c-3 -5 -1 -10 4 -10 6 0 11 5 11 10 0 6 -2 10 -4 10 -3 0
-8 -4 -11 -10z"/>
<path d="M7448 403 c6 -2 18 -2 25 0 6 3 1 5 -13 5 -14 0 -19 -2 -12 -5z"/>
<path d="M6447 363 c-4 -3 -7 -11 -7 -17 0 -6 5 -5 12 2 6 6 9 14 7 17 -3 3
-9 2 -12 -2z"/>
<path d="M7520 350 c0 -19 3 -21 12 -12 9 9 9 15 0 24 -9 9 -12 7 -12 -12z"/>
<path d="M6340 306 c0 -8 5 -18 10 -21 6 -3 10 1 10 9 0 8 -4 18 -10 21 -5 3
-10 -1 -10 -9z"/>
<path d="M7560 298 c0 -5 9 -12 20 -15 11 -3 20 -12 20 -20 0 -8 5 -13 12 -11
24 8 17 24 -17 40 -19 8 -35 11 -35 6z"/>
<path d="M3130 290 c0 -5 5 -10 10 -10 6 0 10 5 10 10 0 6 -4 10 -10 10 -5 0
-10 -4 -10 -10z"/>
<path d="M7487 293 c-4 -3 -7 -11 -7 -17 0 -6 5 -5 12 2 6 6 9 14 7 17 -3 3
-9 2 -12 -2z"/>
<path d="M6410 279 c0 -6 7 -17 15 -25 16 -17 21 -64 6 -64 -5 0 -16 16 -25
35 -17 35 -36 54 -36 36 0 -5 5 -13 10 -16 6 -3 10 -15 10 -25 0 -21 38 -90
50 -90 4 0 13 7 20 15 7 9 8 15 2 15 -6 0 -8 15 -5 38 4 27 1 42 -11 51 -9 7
-16 20 -16 27 0 8 -4 14 -10 14 -5 0 -10 -5 -10 -11z"/>
<path d="M6520 280 c0 -5 5 -10 10 -10 6 0 10 5 10 10 0 6 -4 10 -10 10 -5 0
-10 -4 -10 -10z"/>
<path d="M7530 270 c20 -13 33 -13 25 0 -3 6 -14 10 -23 10 -15 0 -15 -2 -2
-10z"/>
<path d="M6556 225 c4 -8 8 -15 10 -15 2 0 4 7 4 15 0 8 -4 15 -10 15 -5 0 -7
-7 -4 -15z"/>
<path d="M7390 221 c0 -11 31 -24 39 -16 3 3 -1 10 -9 15 -19 12 -30 12 -30 1z"/>
<path d="M6474 206 c-3 -8 -1 -23 5 -33 8 -15 10 -12 8 14 -2 36 -5 40 -13 19z"/>
<path d="M6510 204 c0 -8 5 -12 10 -9 6 4 8 11 5 16 -9 14 -15 11 -15 -7z"/>
<path d="M6342 194 c1 -9 9 -19 16 -22 9 -3 13 2 10 14 -1 9 -9 19 -16 22 -9
3 -13 -2 -10 -14z"/>
<path d="M7361 184 c0 -11 3 -14 6 -6 3 7 2 16 -1 19 -3 4 -6 -2 -5 -13z"/>
<path d="M6320 165 c0 -12 65 -73 73 -68 6 4 8 -4 5 -20 -3 -15 -2 -24 2 -22
5 3 13 -9 19 -25 8 -25 15 -30 41 -30 28 0 31 3 25 22 -11 33 -57 72 -67 56
-5 -9 -8 -4 -8 13 0 18 -8 29 -25 37 -14 6 -25 16 -25 21 0 5 -9 11 -20 14
-11 3 -20 4 -20 2z"/>
<path d="M6280 126 c0 -13 7 -27 16 -30 12 -5 15 -2 10 10 -3 8 -6 22 -6 30 0
8 -4 14 -10 14 -5 0 -10 -11 -10 -24z"/>
<path d="M6486 142 c6 -4 14 -16 18 -27 6 -13 10 -16 13 -7 6 15 -14 42 -31
42 -8 0 -8 -3 0 -8z"/>
<path d="M6320 71 c0 -14 -6 -21 -19 -21 -12 0 -20 -9 -23 -25 -5 -25 -4 -25
60 -25 l65 0 -19 23 c-10 12 -29 33 -41 46 -23 23 -23 23 -23 2z"/>
<path d="M6532 61 c23 -30 38 -39 38 -23 0 12 -39 52 -51 52 -6 0 0 -13 13
-29z"/>
<path d="M6485 61 c-3 -5 5 -22 18 -36 16 -19 30 -26 47 -23 l25 4 -27 12
c-14 6 -29 20 -33 31 -7 22 -20 27 -30 12z"/>
<path d="M7351 60 c-2 -3 -4 -17 -5 -32 -1 -21 3 -28 16 -28 10 0 18 5 18 10
0 6 -4 10 -9 10 -5 0 -12 10 -14 23 -2 12 -5 20 -6 17z"/>
<path d="M6241 24 c0 -11 3 -14 6 -6 3 7 2 16 -1 19 -3 4 -6 -2 -5 -13z"/>
<path d="M3085 10 c-3 -5 -1 -10 4 -10 6 0 11 5 11 10 0 6 -2 10 -4 10 -3 0
-8 -4 -11 -10z"/>
</g>
</svg>
