<svg width="42" height="41" viewBox="0 0 42 41" fill="none" xmlns="http://www.w3.org/2000/svg">
<path d="M14.2796 19.1479C17.6345 19.1479 20.3632 15.486 20.3632 10.9838C20.3632 6.48186 17.6344 2.81891 14.2796 2.81891C10.9258 2.81891 8.19678 6.48175 8.19678 10.9838C8.19678 15.486 10.9258 19.1479 14.2796 19.1479Z" fill="white"/>
<path d="M32.3238 27.0897C32.199 26.9197 32.0794 26.7594 32.0154 26.6216C30.6552 23.7099 26.9265 20.2772 20.8856 20.1919L20.6532 20.1906C14.7051 20.1906 11.0041 23.4415 9.52341 26.4852C9.47228 26.5893 9.35977 26.7244 9.2406 26.8673C9.09957 27.0347 8.96004 27.206 8.84076 27.3921C7.58989 29.3381 6.95212 31.529 7.04621 33.5608C7.14483 35.718 8.04797 37.4506 9.58489 38.439C10.2059 38.8379 10.8759 39.0389 11.5789 39.0389C13.0285 39.0389 14.3557 38.2224 15.8937 37.2767C16.8716 36.6741 17.8816 36.0522 19.0035 35.5868C19.1293 35.5454 19.6445 35.4821 20.4871 35.4821C21.4891 35.4821 22.2087 35.5712 22.3624 35.6243C23.4576 36.1078 24.4194 36.742 25.3497 37.3541C26.7759 38.2941 28.1224 39.1811 29.5835 39.1811C30.2104 39.1811 30.8182 39.0156 31.3916 38.6899C34.5548 36.8927 35.1573 31.9621 32.7356 27.6993C32.614 27.4854 32.4692 27.2857 32.3238 27.0897Z" fill="white"/>
<path d="M27.2154 19.1479C30.5686 19.1479 33.298 15.486 33.298 10.9838C33.298 6.48186 30.5686 2.81891 27.2154 2.81891C23.8603 2.81891 21.1316 6.48175 21.1316 10.9838C21.1316 15.486 23.8603 19.1479 27.2154 19.1479Z" fill="white"/>
<path d="M37.2059 14.9556C34.5171 14.9556 32.4128 17.744 32.4128 21.3039C32.4128 24.8621 34.5184 27.6508 37.2059 27.6508C39.8931 27.6508 41.9999 24.8621 41.9999 21.3039C41.9999 17.7441 39.8944 14.9556 37.2059 14.9556Z" fill="white"/>
<path d="M9.58669 21.3039C9.58669 17.7441 7.48112 14.9556 4.79356 14.9556C2.10589 14.9556 0 17.7441 0 21.3039C0 24.8621 2.10589 27.6508 4.79356 27.6508C7.48123 27.6508 9.58669 24.8621 9.58669 21.3039Z" fill="white"/>
</svg>
